<mxfile host="app.diagrams.net" modified="2024-05-18T23:31:33.725Z" agent="Mozilla/5.0 (Windows NT 10.0; Win64; x64) AppleWebKit/537.36 (KHTML, like Gecko) Chrome/123.0.0.0 Safari/537.36 OPR/109.0.0.0" etag="TU586415d3qCkNp-DR5E" version="24.4.4" type="github">
  <diagram name="Page-1" id="2YBvvXClWsGukQMizWep">
    <mxGraphModel dx="2286" dy="693" grid="1" gridSize="10" guides="1" tooltips="1" connect="1" arrows="1" fold="1" page="1" pageScale="1" pageWidth="850" pageHeight="1100" math="0" shadow="0">
      <root>
        <mxCell id="0" />
        <mxCell id="1" parent="0" />
        <mxCell id="w5mwKe_ZDZmAdtdNxIc0-101" value="" style="line;strokeWidth=1;fillColor=none;align=left;verticalAlign=middle;spacingTop=-1;spacingLeft=3;spacingRight=3;rotatable=0;labelPosition=right;points=[];portConstraint=eastwest;strokeColor=inherit;" vertex="1" parent="1">
          <mxGeometry x="-370" y="441" width="860" height="8" as="geometry" />
        </mxCell>
        <mxCell id="w5mwKe_ZDZmAdtdNxIc0-55" value="Alt" style="shape=umlFrame;whiteSpace=wrap;html=1;pointerEvents=0;width=50;height=21;" vertex="1" parent="1">
          <mxGeometry x="-370" y="360" width="860" height="161" as="geometry" />
        </mxCell>
        <mxCell id="w5mwKe_ZDZmAdtdNxIc0-32" value="Loop" style="shape=umlFrame;whiteSpace=wrap;html=1;pointerEvents=0;width=57;height=25;" vertex="1" parent="1">
          <mxGeometry x="-556" y="145" width="637" height="165" as="geometry" />
        </mxCell>
        <mxCell id="w5mwKe_ZDZmAdtdNxIc0-21" value="Alt" style="shape=umlFrame;whiteSpace=wrap;html=1;pointerEvents=0;width=50;height=21;" vertex="1" parent="1">
          <mxGeometry x="-460" y="235" width="450" height="56" as="geometry" />
        </mxCell>
        <mxCell id="w5mwKe_ZDZmAdtdNxIc0-5" style="edgeStyle=orthogonalEdgeStyle;rounded=0;orthogonalLoop=1;jettySize=auto;html=1;dashed=1;endArrow=none;endFill=0;exitX=0.509;exitY=1.015;exitDx=0;exitDy=0;exitPerimeter=0;" edge="1" parent="1" source="w5mwKe_ZDZmAdtdNxIc0-1">
          <mxGeometry relative="1" as="geometry">
            <mxPoint x="-236" y="1061" as="targetPoint" />
            <mxPoint x="-236" y="150.0000000000001" as="sourcePoint" />
          </mxGeometry>
        </mxCell>
        <mxCell id="aM9ryv3xv72pqoxQDRHE-1" value="Designer" style="shape=umlLifeline;perimeter=lifelinePerimeter;whiteSpace=wrap;html=1;container=0;dropTarget=0;collapsible=0;recursiveResize=0;outlineConnect=0;portConstraint=eastwest;newEdgeStyle={&quot;edgeStyle&quot;:&quot;elbowEdgeStyle&quot;,&quot;elbow&quot;:&quot;vertical&quot;,&quot;curved&quot;:0,&quot;rounded&quot;:0};" parent="1" vertex="1">
          <mxGeometry x="-530" y="59" width="100" height="1011" as="geometry" />
        </mxCell>
        <mxCell id="aM9ryv3xv72pqoxQDRHE-7" value="cadastrar()" style="html=1;verticalAlign=bottom;endArrow=block;edgeStyle=elbowEdgeStyle;elbow=vertical;curved=0;rounded=0;" parent="1" source="aM9ryv3xv72pqoxQDRHE-2" target="aM9ryv3xv72pqoxQDRHE-6" edge="1">
          <mxGeometry relative="1" as="geometry">
            <mxPoint x="-375" y="180" as="sourcePoint" />
            <Array as="points">
              <mxPoint x="-390" y="170" />
            </Array>
          </mxGeometry>
        </mxCell>
        <mxCell id="aM9ryv3xv72pqoxQDRHE-2" value="" style="html=1;points=[];perimeter=orthogonalPerimeter;outlineConnect=0;targetShapes=umlLifeline;portConstraint=eastwest;newEdgeStyle={&quot;edgeStyle&quot;:&quot;elbowEdgeStyle&quot;,&quot;elbow&quot;:&quot;vertical&quot;,&quot;curved&quot;:0,&quot;rounded&quot;:0};" parent="1" vertex="1">
          <mxGeometry x="-485" y="160" width="10" height="890" as="geometry" />
        </mxCell>
        <mxCell id="w5mwKe_ZDZmAdtdNxIc0-1" value="Boundary Cadastro" style="shape=umlBoundary;whiteSpace=wrap;html=1;" vertex="1" parent="1">
          <mxGeometry x="-286" y="39" width="100" height="80" as="geometry" />
        </mxCell>
        <mxCell id="w5mwKe_ZDZmAdtdNxIc0-13" style="edgeStyle=orthogonalEdgeStyle;rounded=0;orthogonalLoop=1;jettySize=auto;html=1;dashed=1;endArrow=none;endFill=0;exitX=0.495;exitY=0.995;exitDx=0;exitDy=0;exitPerimeter=0;" edge="1" parent="1" source="w5mwKe_ZDZmAdtdNxIc0-2">
          <mxGeometry relative="1" as="geometry">
            <mxPoint x="13" y="941" as="targetPoint" />
            <mxPoint x="13.000000000000455" y="150.0000000000001" as="sourcePoint" />
          </mxGeometry>
        </mxCell>
        <mxCell id="w5mwKe_ZDZmAdtdNxIc0-2" value="Control Cadastro" style="ellipse;shape=umlControl;whiteSpace=wrap;html=1;" vertex="1" parent="1">
          <mxGeometry x="-27" y="29" width="80" height="90" as="geometry" />
        </mxCell>
        <mxCell id="w5mwKe_ZDZmAdtdNxIc0-3" value="Sistema de Cadastro" style="shape=umlFrame;whiteSpace=wrap;html=1;pointerEvents=0;width=120;height=30;" vertex="1" parent="1">
          <mxGeometry x="-580" y="10" width="1110" height="1070" as="geometry" />
        </mxCell>
        <mxCell id="w5mwKe_ZDZmAdtdNxIc0-7" value="Retorna True" style="html=1;verticalAlign=bottom;endArrow=open;dashed=1;endSize=8;edgeStyle=elbowEdgeStyle;elbow=vertical;curved=0;rounded=0;" edge="1" parent="1">
          <mxGeometry relative="1" as="geometry">
            <mxPoint x="-231" y="497.72" as="targetPoint" />
            <Array as="points">
              <mxPoint x="-136" y="497.72" />
            </Array>
            <mxPoint x="8" y="497.72" as="sourcePoint" />
          </mxGeometry>
        </mxCell>
        <mxCell id="w5mwKe_ZDZmAdtdNxIc0-14" value="Banco VisualOps" style="shape=umlLifeline;perimeter=lifelinePerimeter;whiteSpace=wrap;html=1;container=0;dropTarget=0;collapsible=0;recursiveResize=0;outlineConnect=0;portConstraint=eastwest;newEdgeStyle={&quot;edgeStyle&quot;:&quot;elbowEdgeStyle&quot;,&quot;elbow&quot;:&quot;vertical&quot;,&quot;curved&quot;:0,&quot;rounded&quot;:0};" vertex="1" parent="1">
          <mxGeometry x="199" y="59" width="100" height="841" as="geometry" />
        </mxCell>
        <mxCell id="w5mwKe_ZDZmAdtdNxIc0-10" value="" style="html=1;points=[];perimeter=orthogonalPerimeter;outlineConnect=0;targetShapes=umlLifeline;portConstraint=eastwest;newEdgeStyle={&quot;edgeStyle&quot;:&quot;elbowEdgeStyle&quot;,&quot;elbow&quot;:&quot;vertical&quot;,&quot;curved&quot;:0,&quot;rounded&quot;:0};" vertex="1" parent="1">
          <mxGeometry x="8" y="333" width="10" height="97" as="geometry" />
        </mxCell>
        <mxCell id="w5mwKe_ZDZmAdtdNxIc0-16" value="" style="html=1;points=[];perimeter=orthogonalPerimeter;outlineConnect=0;targetShapes=umlLifeline;portConstraint=eastwest;newEdgeStyle={&quot;edgeStyle&quot;:&quot;elbowEdgeStyle&quot;,&quot;elbow&quot;:&quot;vertical&quot;,&quot;curved&quot;:0,&quot;rounded&quot;:0};" vertex="1" parent="1">
          <mxGeometry x="244" y="346" width="10" height="145" as="geometry" />
        </mxCell>
        <mxCell id="w5mwKe_ZDZmAdtdNxIc0-19" style="edgeStyle=elbowEdgeStyle;rounded=0;orthogonalLoop=1;jettySize=auto;html=1;elbow=horizontal;curved=0;dashed=1;dashPattern=8 8;" edge="1" parent="1" source="w5mwKe_ZDZmAdtdNxIc0-18" target="w5mwKe_ZDZmAdtdNxIc0-18">
          <mxGeometry relative="1" as="geometry">
            <Array as="points">
              <mxPoint x="-206" y="264" />
            </Array>
          </mxGeometry>
        </mxCell>
        <mxCell id="w5mwKe_ZDZmAdtdNxIc0-20" value="Mostrar pop-up &quot;Campos invÃ¡lidos,&amp;nbsp;&lt;div&gt;por favor verifique os campos&quot;&lt;/div&gt;" style="edgeLabel;html=1;align=center;verticalAlign=middle;resizable=0;points=[];" vertex="1" connectable="0" parent="w5mwKe_ZDZmAdtdNxIc0-19">
          <mxGeometry x="0.2321" relative="1" as="geometry">
            <mxPoint x="92" y="-6" as="offset" />
          </mxGeometry>
        </mxCell>
        <mxCell id="w5mwKe_ZDZmAdtdNxIc0-22" value="if (verificarCampos == false)" style="text;html=1;align=center;verticalAlign=middle;resizable=0;points=[];autosize=1;strokeColor=none;fillColor=none;" vertex="1" parent="1">
          <mxGeometry x="-460" y="258" width="170" height="30" as="geometry" />
        </mxCell>
        <mxCell id="w5mwKe_ZDZmAdtdNxIc0-24" style="edgeStyle=elbowEdgeStyle;rounded=0;orthogonalLoop=1;jettySize=auto;html=1;elbow=horizontal;curved=0;" edge="1" parent="1" source="w5mwKe_ZDZmAdtdNxIc0-23" target="w5mwKe_ZDZmAdtdNxIc0-23">
          <mxGeometry relative="1" as="geometry">
            <Array as="points">
              <mxPoint x="-206" y="211" />
            </Array>
          </mxGeometry>
        </mxCell>
        <mxCell id="w5mwKe_ZDZmAdtdNxIc0-25" value="verifcarCampos(listaCampos)" style="edgeLabel;html=1;align=center;verticalAlign=middle;resizable=0;points=[];" vertex="1" connectable="0" parent="w5mwKe_ZDZmAdtdNxIc0-24">
          <mxGeometry x="0.2321" relative="1" as="geometry">
            <mxPoint x="76" y="-6" as="offset" />
          </mxGeometry>
        </mxCell>
        <mxCell id="aM9ryv3xv72pqoxQDRHE-6" value="" style="html=1;points=[];perimeter=orthogonalPerimeter;outlineConnect=0;targetShapes=umlLifeline;portConstraint=eastwest;newEdgeStyle={&quot;edgeStyle&quot;:&quot;elbowEdgeStyle&quot;,&quot;elbow&quot;:&quot;vertical&quot;,&quot;curved&quot;:0,&quot;rounded&quot;:0};" parent="1" vertex="1">
          <mxGeometry x="-241" y="170" width="10" height="871" as="geometry" />
        </mxCell>
        <mxCell id="w5mwKe_ZDZmAdtdNxIc0-23" value="" style="html=1;points=[];perimeter=orthogonalPerimeter;outlineConnect=0;targetShapes=umlLifeline;portConstraint=eastwest;newEdgeStyle={&quot;edgeStyle&quot;:&quot;elbowEdgeStyle&quot;,&quot;elbow&quot;:&quot;vertical&quot;,&quot;curved&quot;:0,&quot;rounded&quot;:0};" vertex="1" parent="1">
          <mxGeometry x="-234" y="198" width="10" height="25" as="geometry" />
        </mxCell>
        <mxCell id="w5mwKe_ZDZmAdtdNxIc0-18" value="" style="html=1;points=[];perimeter=orthogonalPerimeter;outlineConnect=0;targetShapes=umlLifeline;portConstraint=eastwest;newEdgeStyle={&quot;edgeStyle&quot;:&quot;elbowEdgeStyle&quot;,&quot;elbow&quot;:&quot;vertical&quot;,&quot;curved&quot;:0,&quot;rounded&quot;:0};" vertex="1" parent="1">
          <mxGeometry x="-234" y="251" width="10" height="25" as="geometry" />
        </mxCell>
        <mxCell id="w5mwKe_ZDZmAdtdNxIc0-37" value="controllerUsuairo.cadastrar(Usuario)" style="html=1;verticalAlign=bottom;endArrow=block;edgeStyle=elbowEdgeStyle;elbow=vertical;curved=0;rounded=0;" edge="1" parent="1">
          <mxGeometry x="-0.0042" relative="1" as="geometry">
            <mxPoint x="-231" y="767" as="sourcePoint" />
            <Array as="points">
              <mxPoint x="-146" y="767" />
            </Array>
            <mxPoint x="8" y="767" as="targetPoint" />
            <mxPoint as="offset" />
          </mxGeometry>
        </mxCell>
        <mxCell id="w5mwKe_ZDZmAdtdNxIc0-43" value="modalUsuario.cadastrar(Usuario)" style="html=1;verticalAlign=bottom;endArrow=block;edgeStyle=elbowEdgeStyle;elbow=vertical;curved=0;rounded=0;" edge="1" parent="1">
          <mxGeometry relative="1" as="geometry">
            <mxPoint x="19" y="775" as="sourcePoint" />
            <Array as="points">
              <mxPoint x="104" y="775" />
            </Array>
            <mxPoint x="245" y="775" as="targetPoint" />
          </mxGeometry>
        </mxCell>
        <mxCell id="w5mwKe_ZDZmAdtdNxIc0-53" value="controllerEndereco.cadastrar(Endereco)" style="html=1;verticalAlign=bottom;endArrow=block;edgeStyle=elbowEdgeStyle;elbow=vertical;curved=0;rounded=0;" edge="1" parent="1">
          <mxGeometry relative="1" as="geometry">
            <mxPoint x="-231" y="333" as="sourcePoint" />
            <Array as="points">
              <mxPoint x="-146" y="333" />
            </Array>
            <mxPoint x="8" y="333" as="targetPoint" />
          </mxGeometry>
        </mxCell>
        <mxCell id="w5mwKe_ZDZmAdtdNxIc0-54" value="modalEndereco.cadastrar(Endereco)" style="html=1;verticalAlign=bottom;endArrow=block;edgeStyle=elbowEdgeStyle;elbow=vertical;curved=0;rounded=0;" edge="1" parent="1">
          <mxGeometry relative="1" as="geometry">
            <mxPoint x="18" y="346" as="sourcePoint" />
            <Array as="points">
              <mxPoint x="103" y="346" />
            </Array>
            <mxPoint x="244" y="346" as="targetPoint" />
          </mxGeometry>
        </mxCell>
        <mxCell id="w5mwKe_ZDZmAdtdNxIc0-56" value="if (Enderco.existe)" style="text;html=1;align=center;verticalAlign=middle;resizable=0;points=[];autosize=1;strokeColor=none;fillColor=none;" vertex="1" parent="1">
          <mxGeometry x="-368" y="383" width="120" height="30" as="geometry" />
        </mxCell>
        <mxCell id="w5mwKe_ZDZmAdtdNxIc0-57" style="edgeStyle=elbowEdgeStyle;rounded=0;orthogonalLoop=1;jettySize=auto;html=1;elbow=horizontal;curved=0;dashed=1;dashPattern=8 8;" edge="1" parent="1" source="w5mwKe_ZDZmAdtdNxIc0-59" target="w5mwKe_ZDZmAdtdNxIc0-59">
          <mxGeometry relative="1" as="geometry">
            <Array as="points">
              <mxPoint x="278" y="384" />
            </Array>
          </mxGeometry>
        </mxCell>
        <mxCell id="w5mwKe_ZDZmAdtdNxIc0-58" value="throws SQLError &quot;Endereco duplicado&quot;" style="edgeLabel;html=1;align=center;verticalAlign=middle;resizable=0;points=[];" vertex="1" connectable="0" parent="w5mwKe_ZDZmAdtdNxIc0-57">
          <mxGeometry x="0.2321" relative="1" as="geometry">
            <mxPoint x="103" y="-6" as="offset" />
          </mxGeometry>
        </mxCell>
        <mxCell id="w5mwKe_ZDZmAdtdNxIc0-59" value="" style="html=1;points=[];perimeter=orthogonalPerimeter;outlineConnect=0;targetShapes=umlLifeline;portConstraint=eastwest;newEdgeStyle={&quot;edgeStyle&quot;:&quot;elbowEdgeStyle&quot;,&quot;elbow&quot;:&quot;vertical&quot;,&quot;curved&quot;:0,&quot;rounded&quot;:0};" vertex="1" parent="1">
          <mxGeometry x="250" y="371" width="10" height="25" as="geometry" />
        </mxCell>
        <mxCell id="w5mwKe_ZDZmAdtdNxIc0-63" value="Mostrar pop-up &quot;Erro ao cadastrar endereÃ§o!&quot;" style="html=1;verticalAlign=bottom;endArrow=open;dashed=1;endSize=8;edgeStyle=elbowEdgeStyle;elbow=vertical;curved=0;rounded=0;" edge="1" parent="1">
          <mxGeometry relative="1" as="geometry">
            <mxPoint x="-231" y="425" as="targetPoint" />
            <Array as="points">
              <mxPoint x="-136" y="425" />
            </Array>
            <mxPoint x="8" y="425" as="sourcePoint" />
            <mxPoint as="offset" />
          </mxGeometry>
        </mxCell>
        <mxCell id="w5mwKe_ZDZmAdtdNxIc0-65" value="controllerEmpresa.cadastrar(Empresa)" style="html=1;verticalAlign=bottom;endArrow=block;edgeStyle=elbowEdgeStyle;elbow=vertical;curved=0;rounded=0;" edge="1" parent="1">
          <mxGeometry relative="1" as="geometry">
            <mxPoint x="-231" y="547" as="sourcePoint" />
            <Array as="points">
              <mxPoint x="-146" y="547" />
            </Array>
            <mxPoint x="8" y="547" as="targetPoint" />
          </mxGeometry>
        </mxCell>
        <mxCell id="w5mwKe_ZDZmAdtdNxIc0-67" value="modalEmpresa.cadastrar(Empresa)" style="html=1;verticalAlign=bottom;endArrow=block;edgeStyle=elbowEdgeStyle;elbow=vertical;curved=0;rounded=0;" edge="1" parent="1">
          <mxGeometry relative="1" as="geometry">
            <mxPoint x="18" y="561" as="sourcePoint" />
            <Array as="points">
              <mxPoint x="103" y="561" />
            </Array>
            <mxPoint x="244" y="561" as="targetPoint" />
          </mxGeometry>
        </mxCell>
        <mxCell id="w5mwKe_ZDZmAdtdNxIc0-76" value="" style="html=1;points=[];perimeter=orthogonalPerimeter;outlineConnect=0;targetShapes=umlLifeline;portConstraint=eastwest;newEdgeStyle={&quot;edgeStyle&quot;:&quot;elbowEdgeStyle&quot;,&quot;elbow&quot;:&quot;vertical&quot;,&quot;curved&quot;:0,&quot;rounded&quot;:0};" vertex="1" parent="1">
          <mxGeometry x="8" y="766" width="10" height="94" as="geometry" />
        </mxCell>
        <mxCell id="w5mwKe_ZDZmAdtdNxIc0-91" style="edgeStyle=elbowEdgeStyle;rounded=0;orthogonalLoop=1;jettySize=auto;html=1;elbow=horizontal;curved=0;dashed=1;dashPattern=8 8;" edge="1" parent="1" source="w5mwKe_ZDZmAdtdNxIc0-93" target="w5mwKe_ZDZmAdtdNxIc0-93">
          <mxGeometry relative="1" as="geometry">
            <Array as="points">
              <mxPoint x="-206" y="974" />
            </Array>
          </mxGeometry>
        </mxCell>
        <mxCell id="w5mwKe_ZDZmAdtdNxIc0-92" value="Mostrar pop-up &quot;Cadastro realizado com sucesso!&quot;" style="edgeLabel;html=1;align=center;verticalAlign=middle;resizable=0;points=[];" vertex="1" connectable="0" parent="w5mwKe_ZDZmAdtdNxIc0-91">
          <mxGeometry x="0.2321" relative="1" as="geometry">
            <mxPoint x="130" y="-6" as="offset" />
          </mxGeometry>
        </mxCell>
        <mxCell id="w5mwKe_ZDZmAdtdNxIc0-93" value="" style="html=1;points=[];perimeter=orthogonalPerimeter;outlineConnect=0;targetShapes=umlLifeline;portConstraint=eastwest;newEdgeStyle={&quot;edgeStyle&quot;:&quot;elbowEdgeStyle&quot;,&quot;elbow&quot;:&quot;vertical&quot;,&quot;curved&quot;:0,&quot;rounded&quot;:0};" vertex="1" parent="1">
          <mxGeometry x="-234" y="961" width="10" height="25" as="geometry" />
        </mxCell>
        <mxCell id="w5mwKe_ZDZmAdtdNxIc0-94" style="edgeStyle=elbowEdgeStyle;rounded=0;orthogonalLoop=1;jettySize=auto;html=1;elbow=horizontal;curved=0;" edge="1" parent="1" source="w5mwKe_ZDZmAdtdNxIc0-96" target="w5mwKe_ZDZmAdtdNxIc0-96">
          <mxGeometry relative="1" as="geometry">
            <Array as="points">
              <mxPoint x="-206" y="1019" />
            </Array>
          </mxGeometry>
        </mxCell>
        <mxCell id="w5mwKe_ZDZmAdtdNxIc0-95" value="rotaDashboardOwner()" style="edgeLabel;html=1;align=center;verticalAlign=middle;resizable=0;points=[];" vertex="1" connectable="0" parent="w5mwKe_ZDZmAdtdNxIc0-94">
          <mxGeometry x="0.2321" relative="1" as="geometry">
            <mxPoint x="61" y="-6" as="offset" />
          </mxGeometry>
        </mxCell>
        <mxCell id="w5mwKe_ZDZmAdtdNxIc0-96" value="" style="html=1;points=[];perimeter=orthogonalPerimeter;outlineConnect=0;targetShapes=umlLifeline;portConstraint=eastwest;newEdgeStyle={&quot;edgeStyle&quot;:&quot;elbowEdgeStyle&quot;,&quot;elbow&quot;:&quot;vertical&quot;,&quot;curved&quot;:0,&quot;rounded&quot;:0};" vertex="1" parent="1">
          <mxGeometry x="-234" y="1006" width="10" height="25" as="geometry" />
        </mxCell>
        <mxCell id="w5mwKe_ZDZmAdtdNxIc0-98" value="Retorna &quot;Erro ao cadastrar endereÃ§o!&quot;" style="html=1;verticalAlign=bottom;endArrow=open;dashed=1;endSize=8;edgeStyle=elbowEdgeStyle;elbow=vertical;curved=0;rounded=0;entryX=0.92;entryY=0.598;entryDx=0;entryDy=0;entryPerimeter=0;" edge="1" parent="1">
          <mxGeometry relative="1" as="geometry">
            <mxPoint x="17.200000000000045" y="406.60400000000004" as="targetPoint" />
            <Array as="points" />
            <mxPoint x="244" y="406.79999999999995" as="sourcePoint" />
            <mxPoint as="offset" />
          </mxGeometry>
        </mxCell>
        <mxCell id="w5mwKe_ZDZmAdtdNxIc0-99" value="Retorna &quot;Sucesso!&quot;" style="html=1;verticalAlign=bottom;endArrow=open;dashed=1;endSize=8;edgeStyle=elbowEdgeStyle;elbow=vertical;curved=0;rounded=0;entryX=0.92;entryY=0.598;entryDx=0;entryDy=0;entryPerimeter=0;" edge="1" parent="1">
          <mxGeometry relative="1" as="geometry">
            <mxPoint x="18.200000000000045" y="489.004" as="targetPoint" />
            <Array as="points" />
            <mxPoint x="245" y="489.19999999999993" as="sourcePoint" />
            <mxPoint as="offset" />
          </mxGeometry>
        </mxCell>
        <mxCell id="w5mwKe_ZDZmAdtdNxIc0-102" value="else" style="text;html=1;align=center;verticalAlign=middle;resizable=0;points=[];autosize=1;strokeColor=none;fillColor=none;" vertex="1" parent="1">
          <mxGeometry x="-368" y="449" width="50" height="30" as="geometry" />
        </mxCell>
        <mxCell id="w5mwKe_ZDZmAdtdNxIc0-103" value="" style="line;strokeWidth=1;fillColor=none;align=left;verticalAlign=middle;spacingTop=-1;spacingLeft=3;spacingRight=3;rotatable=0;labelPosition=right;points=[];portConstraint=eastwest;strokeColor=inherit;" vertex="1" parent="1">
          <mxGeometry x="-370" y="655" width="860" height="8" as="geometry" />
        </mxCell>
        <mxCell id="w5mwKe_ZDZmAdtdNxIc0-104" value="Alt" style="shape=umlFrame;whiteSpace=wrap;html=1;pointerEvents=0;width=50;height=21;" vertex="1" parent="1">
          <mxGeometry x="-370" y="574" width="860" height="161" as="geometry" />
        </mxCell>
        <mxCell id="w5mwKe_ZDZmAdtdNxIc0-105" value="Retorna True" style="html=1;verticalAlign=bottom;endArrow=open;dashed=1;endSize=8;edgeStyle=elbowEdgeStyle;elbow=vertical;curved=0;rounded=0;" edge="1" parent="1">
          <mxGeometry relative="1" as="geometry">
            <mxPoint x="-231" y="711.72" as="targetPoint" />
            <Array as="points">
              <mxPoint x="-136" y="711.72" />
            </Array>
            <mxPoint x="8" y="711.72" as="sourcePoint" />
          </mxGeometry>
        </mxCell>
        <mxCell id="w5mwKe_ZDZmAdtdNxIc0-106" value="" style="html=1;points=[];perimeter=orthogonalPerimeter;outlineConnect=0;targetShapes=umlLifeline;portConstraint=eastwest;newEdgeStyle={&quot;edgeStyle&quot;:&quot;elbowEdgeStyle&quot;,&quot;elbow&quot;:&quot;vertical&quot;,&quot;curved&quot;:0,&quot;rounded&quot;:0};" vertex="1" parent="1">
          <mxGeometry x="244" y="560" width="10" height="145" as="geometry" />
        </mxCell>
        <mxCell id="w5mwKe_ZDZmAdtdNxIc0-107" value="if (Empresa.existe)" style="text;html=1;align=center;verticalAlign=middle;resizable=0;points=[];autosize=1;strokeColor=none;fillColor=none;" vertex="1" parent="1">
          <mxGeometry x="-368" y="597" width="120" height="30" as="geometry" />
        </mxCell>
        <mxCell id="w5mwKe_ZDZmAdtdNxIc0-108" style="edgeStyle=elbowEdgeStyle;rounded=0;orthogonalLoop=1;jettySize=auto;html=1;elbow=horizontal;curved=0;dashed=1;dashPattern=8 8;" edge="1" parent="1" source="w5mwKe_ZDZmAdtdNxIc0-110" target="w5mwKe_ZDZmAdtdNxIc0-110">
          <mxGeometry relative="1" as="geometry">
            <Array as="points">
              <mxPoint x="278" y="598" />
            </Array>
          </mxGeometry>
        </mxCell>
        <mxCell id="w5mwKe_ZDZmAdtdNxIc0-109" value="throws SQLError &quot;Empresa duplicado&quot;" style="edgeLabel;html=1;align=center;verticalAlign=middle;resizable=0;points=[];" vertex="1" connectable="0" parent="w5mwKe_ZDZmAdtdNxIc0-108">
          <mxGeometry x="0.2321" relative="1" as="geometry">
            <mxPoint x="103" y="-6" as="offset" />
          </mxGeometry>
        </mxCell>
        <mxCell id="w5mwKe_ZDZmAdtdNxIc0-110" value="" style="html=1;points=[];perimeter=orthogonalPerimeter;outlineConnect=0;targetShapes=umlLifeline;portConstraint=eastwest;newEdgeStyle={&quot;edgeStyle&quot;:&quot;elbowEdgeStyle&quot;,&quot;elbow&quot;:&quot;vertical&quot;,&quot;curved&quot;:0,&quot;rounded&quot;:0};" vertex="1" parent="1">
          <mxGeometry x="250" y="585" width="10" height="25" as="geometry" />
        </mxCell>
        <mxCell id="w5mwKe_ZDZmAdtdNxIc0-111" value="Mostrar pop-up &quot;Erro ao cadastrar empresa!&quot;" style="html=1;verticalAlign=bottom;endArrow=open;dashed=1;endSize=8;edgeStyle=elbowEdgeStyle;elbow=vertical;curved=0;rounded=0;" edge="1" parent="1">
          <mxGeometry relative="1" as="geometry">
            <mxPoint x="-231" y="639" as="targetPoint" />
            <Array as="points">
              <mxPoint x="-136" y="639" />
            </Array>
            <mxPoint x="8" y="639" as="sourcePoint" />
            <mxPoint as="offset" />
          </mxGeometry>
        </mxCell>
        <mxCell id="w5mwKe_ZDZmAdtdNxIc0-112" value="Retorna &quot;Erro ao cadastrar empresa!&quot;" style="html=1;verticalAlign=bottom;endArrow=open;dashed=1;endSize=8;edgeStyle=elbowEdgeStyle;elbow=vertical;curved=0;rounded=0;entryX=0.92;entryY=0.598;entryDx=0;entryDy=0;entryPerimeter=0;" edge="1" parent="1">
          <mxGeometry relative="1" as="geometry">
            <mxPoint x="17.200000000000045" y="620.604" as="targetPoint" />
            <Array as="points" />
            <mxPoint x="244" y="620.8" as="sourcePoint" />
            <mxPoint as="offset" />
          </mxGeometry>
        </mxCell>
        <mxCell id="w5mwKe_ZDZmAdtdNxIc0-113" value="Retorna &quot;Sucesso!&quot;" style="html=1;verticalAlign=bottom;endArrow=open;dashed=1;endSize=8;edgeStyle=elbowEdgeStyle;elbow=vertical;curved=0;rounded=0;entryX=0.92;entryY=0.598;entryDx=0;entryDy=0;entryPerimeter=0;" edge="1" parent="1">
          <mxGeometry relative="1" as="geometry">
            <mxPoint x="18.200000000000045" y="703.004" as="targetPoint" />
            <Array as="points" />
            <mxPoint x="245" y="703.1999999999999" as="sourcePoint" />
            <mxPoint as="offset" />
          </mxGeometry>
        </mxCell>
        <mxCell id="w5mwKe_ZDZmAdtdNxIc0-114" value="else" style="text;html=1;align=center;verticalAlign=middle;resizable=0;points=[];autosize=1;strokeColor=none;fillColor=none;" vertex="1" parent="1">
          <mxGeometry x="-368" y="663" width="50" height="30" as="geometry" />
        </mxCell>
        <mxCell id="w5mwKe_ZDZmAdtdNxIc0-115" value="" style="line;strokeWidth=1;fillColor=none;align=left;verticalAlign=middle;spacingTop=-1;spacingLeft=3;spacingRight=3;rotatable=0;labelPosition=right;points=[];portConstraint=eastwest;strokeColor=inherit;" vertex="1" parent="1">
          <mxGeometry x="-370" y="867" width="860" height="8" as="geometry" />
        </mxCell>
        <mxCell id="w5mwKe_ZDZmAdtdNxIc0-116" value="Alt" style="shape=umlFrame;whiteSpace=wrap;html=1;pointerEvents=0;width=50;height=21;" vertex="1" parent="1">
          <mxGeometry x="-370" y="786" width="860" height="161" as="geometry" />
        </mxCell>
        <mxCell id="w5mwKe_ZDZmAdtdNxIc0-117" value="Retorna True" style="html=1;verticalAlign=bottom;endArrow=open;dashed=1;endSize=8;edgeStyle=elbowEdgeStyle;elbow=vertical;curved=0;rounded=0;" edge="1" parent="1">
          <mxGeometry relative="1" as="geometry">
            <mxPoint x="-231" y="923.72" as="targetPoint" />
            <Array as="points">
              <mxPoint x="-136" y="923.72" />
            </Array>
            <mxPoint x="8" y="923.72" as="sourcePoint" />
          </mxGeometry>
        </mxCell>
        <mxCell id="w5mwKe_ZDZmAdtdNxIc0-118" value="" style="html=1;points=[];perimeter=orthogonalPerimeter;outlineConnect=0;targetShapes=umlLifeline;portConstraint=eastwest;newEdgeStyle={&quot;edgeStyle&quot;:&quot;elbowEdgeStyle&quot;,&quot;elbow&quot;:&quot;vertical&quot;,&quot;curved&quot;:0,&quot;rounded&quot;:0};" vertex="1" parent="1">
          <mxGeometry x="244" y="772" width="10" height="145" as="geometry" />
        </mxCell>
        <mxCell id="w5mwKe_ZDZmAdtdNxIc0-119" value="if (Usuario.existe)" style="text;html=1;align=center;verticalAlign=middle;resizable=0;points=[];autosize=1;strokeColor=none;fillColor=none;" vertex="1" parent="1">
          <mxGeometry x="-368" y="809" width="120" height="30" as="geometry" />
        </mxCell>
        <mxCell id="w5mwKe_ZDZmAdtdNxIc0-120" style="edgeStyle=elbowEdgeStyle;rounded=0;orthogonalLoop=1;jettySize=auto;html=1;elbow=horizontal;curved=0;dashed=1;dashPattern=8 8;" edge="1" parent="1" source="w5mwKe_ZDZmAdtdNxIc0-122" target="w5mwKe_ZDZmAdtdNxIc0-122">
          <mxGeometry relative="1" as="geometry">
            <Array as="points">
              <mxPoint x="278" y="810" />
            </Array>
          </mxGeometry>
        </mxCell>
        <mxCell id="w5mwKe_ZDZmAdtdNxIc0-121" value="throws SQLError &quot;UsuÃ¡rio duplicado&quot;" style="edgeLabel;html=1;align=center;verticalAlign=middle;resizable=0;points=[];" vertex="1" connectable="0" parent="w5mwKe_ZDZmAdtdNxIc0-120">
          <mxGeometry x="0.2321" relative="1" as="geometry">
            <mxPoint x="103" y="-6" as="offset" />
          </mxGeometry>
        </mxCell>
        <mxCell id="w5mwKe_ZDZmAdtdNxIc0-122" value="" style="html=1;points=[];perimeter=orthogonalPerimeter;outlineConnect=0;targetShapes=umlLifeline;portConstraint=eastwest;newEdgeStyle={&quot;edgeStyle&quot;:&quot;elbowEdgeStyle&quot;,&quot;elbow&quot;:&quot;vertical&quot;,&quot;curved&quot;:0,&quot;rounded&quot;:0};" vertex="1" parent="1">
          <mxGeometry x="250" y="797" width="10" height="25" as="geometry" />
        </mxCell>
        <mxCell id="w5mwKe_ZDZmAdtdNxIc0-123" value="Mostrar pop-up &quot;Erro ao cadastrar usuÃ¡rio!&quot;" style="html=1;verticalAlign=bottom;endArrow=open;dashed=1;endSize=8;edgeStyle=elbowEdgeStyle;elbow=vertical;curved=0;rounded=0;" edge="1" parent="1">
          <mxGeometry relative="1" as="geometry">
            <mxPoint x="-231" y="851" as="targetPoint" />
            <Array as="points">
              <mxPoint x="-136" y="851" />
            </Array>
            <mxPoint x="8" y="851" as="sourcePoint" />
            <mxPoint as="offset" />
          </mxGeometry>
        </mxCell>
        <mxCell id="w5mwKe_ZDZmAdtdNxIc0-124" value="Retorna &quot;Erro ao cadastrar usuÃ¡rio!&quot;" style="html=1;verticalAlign=bottom;endArrow=open;dashed=1;endSize=8;edgeStyle=elbowEdgeStyle;elbow=vertical;curved=0;rounded=0;entryX=0.92;entryY=0.598;entryDx=0;entryDy=0;entryPerimeter=0;" edge="1" parent="1">
          <mxGeometry relative="1" as="geometry">
            <mxPoint x="17.200000000000045" y="832.604" as="targetPoint" />
            <Array as="points" />
            <mxPoint x="244" y="832.8" as="sourcePoint" />
            <mxPoint as="offset" />
          </mxGeometry>
        </mxCell>
        <mxCell id="w5mwKe_ZDZmAdtdNxIc0-125" value="Retorna &quot;Sucesso!&quot;" style="html=1;verticalAlign=bottom;endArrow=open;dashed=1;endSize=8;edgeStyle=elbowEdgeStyle;elbow=vertical;curved=0;rounded=0;entryX=0.92;entryY=0.598;entryDx=0;entryDy=0;entryPerimeter=0;" edge="1" parent="1">
          <mxGeometry relative="1" as="geometry">
            <mxPoint x="18.200000000000045" y="915.004" as="targetPoint" />
            <Array as="points" />
            <mxPoint x="245" y="915.1999999999999" as="sourcePoint" />
            <mxPoint as="offset" />
          </mxGeometry>
        </mxCell>
        <mxCell id="w5mwKe_ZDZmAdtdNxIc0-126" value="else" style="text;html=1;align=center;verticalAlign=middle;resizable=0;points=[];autosize=1;strokeColor=none;fillColor=none;" vertex="1" parent="1">
          <mxGeometry x="-368" y="875" width="50" height="30" as="geometry" />
        </mxCell>
        <mxCell id="w5mwKe_ZDZmAdtdNxIc0-66" value="" style="html=1;points=[];perimeter=orthogonalPerimeter;outlineConnect=0;targetShapes=umlLifeline;portConstraint=eastwest;newEdgeStyle={&quot;edgeStyle&quot;:&quot;elbowEdgeStyle&quot;,&quot;elbow&quot;:&quot;vertical&quot;,&quot;curved&quot;:0,&quot;rounded&quot;:0};" vertex="1" parent="1">
          <mxGeometry x="8" y="547" width="10" height="93" as="geometry" />
        </mxCell>
        <mxCell id="w5mwKe_ZDZmAdtdNxIc0-127" value="" style="html=1;points=[];perimeter=orthogonalPerimeter;outlineConnect=0;targetShapes=umlLifeline;portConstraint=eastwest;newEdgeStyle={&quot;edgeStyle&quot;:&quot;elbowEdgeStyle&quot;,&quot;elbow&quot;:&quot;vertical&quot;,&quot;curved&quot;:0,&quot;rounded&quot;:0};" vertex="1" parent="1">
          <mxGeometry x="8" y="488" width="10" height="12" as="geometry" />
        </mxCell>
        <mxCell id="w5mwKe_ZDZmAdtdNxIc0-128" value="" style="html=1;points=[];perimeter=orthogonalPerimeter;outlineConnect=0;targetShapes=umlLifeline;portConstraint=eastwest;newEdgeStyle={&quot;edgeStyle&quot;:&quot;elbowEdgeStyle&quot;,&quot;elbow&quot;:&quot;vertical&quot;,&quot;curved&quot;:0,&quot;rounded&quot;:0};" vertex="1" parent="1">
          <mxGeometry x="8" y="699" width="10" height="20" as="geometry" />
        </mxCell>
        <mxCell id="w5mwKe_ZDZmAdtdNxIc0-129" value="" style="html=1;points=[];perimeter=orthogonalPerimeter;outlineConnect=0;targetShapes=umlLifeline;portConstraint=eastwest;newEdgeStyle={&quot;edgeStyle&quot;:&quot;elbowEdgeStyle&quot;,&quot;elbow&quot;:&quot;vertical&quot;,&quot;curved&quot;:0,&quot;rounded&quot;:0};" vertex="1" parent="1">
          <mxGeometry x="8" y="913" width="10" height="16" as="geometry" />
        </mxCell>
      </root>
    </mxGraphModel>
  </diagram>
</mxfile>
